<svg id="Layer_1" data-name="Layer 1" xmlns="http://www.w3.org/2000/svg" viewBox="0 0 326 326"><defs><style>.cls-1{fill:#39a4dd;}.cls-2{fill:#fff;}.cls-3{fill:#023d5a;}</style></defs><title>1Artboard 4 copy 21500px</title><circle class="cls-1" cx="163" cy="163" r="149.02"/><path class="cls-2" d="M162.47,82.17h0a5.76,5.76,0,0,0-1.7.47l-60.16,26.21A5.63,5.63,0,0,0,97.2,114c0,40.61,2.44,64.22,12,82.49s25.62,29.75,50.7,46.41a5.63,5.63,0,0,0,6.23,0c25.09-16.67,41.15-28.15,50.7-46.41s12-41.88,12-82.49a5.63,5.63,0,0,0-3.41-5.17L165.23,82.64A5.69,5.69,0,0,0,162.47,82.17Z"/><path class="cls-3" d="M154.52,174.58V117.63h17v56.95Zm0,33.79V189.26h17v19.11Z"/></svg>