<svg id="Layer_1" data-name="Layer 1" xmlns="http://www.w3.org/2000/svg" viewBox="0 0 326 326"><defs><style>.cls-1{fill:#78909c;}</style></defs><title>1Artboard 4 copy 29500px</title><path class="cls-1" d="M163,202.85A39.85,39.85,0,1,1,202.84,163,39.86,39.86,0,0,1,163,202.85Zm0-93h-.05a119.52,119.52,0,0,0-99.18,52.72A118.27,118.27,0,0,0,163,216.13a119.61,119.61,0,0,0,99.23-52.72,118.07,118.07,0,0,0-99.12-53.57H163Zm0,133.06A146.37,146.37,0,0,1,33,163.81c24.34-48.61,73.41-80.7,130-80.7a146.32,146.32,0,0,1,130,79.07c-24.36,48.59-73.43,80.7-130,80.72Z"/></svg>