<svg id="Layer_1" data-name="Layer 1" xmlns="http://www.w3.org/2000/svg" viewBox="0 0 326 326"><defs><style>.cls-1{fill:#39a4dd;}.cls-2{fill:#fff;}.cls-3{fill:#023d5a;}</style></defs><title>1Artboard 4 copy 22500px</title><circle class="cls-1" cx="163" cy="163" r="149.02"/><path class="cls-2" d="M179.59,164.29h0a8.68,8.68,0,0,1,4.82-7.83,45.74,45.74,0,0,0,24.71-41.61,46.48,46.48,0,0,0-43.71-44.92,45.87,45.87,0,0,0-23.52,86.51,8.79,8.79,0,0,1-1.51,16.28A74.47,74.47,0,0,0,88.84,236a7.07,7.07,0,0,0,6.94,7.84H230.22a7.15,7.15,0,0,0,6.94-7.54,75.23,75.23,0,0,0-51.54-63.6A8.77,8.77,0,0,1,179.59,164.29Z"/><polygon class="cls-3" points="100.78 101.5 100.78 128.98 224.09 128.98 224.09 110.76 224.09 100.82 100.78 101.5"/><path class="cls-3" d="M270.32,145.73s-14.14-29.85-46.23-16.29C224.09,129.44,241.73,160.5,270.32,145.73Z"/></svg>