<svg id="Layer_1" data-name="Layer 1" xmlns="http://www.w3.org/2000/svg" viewBox="0 0 326 326"><defs><style>.cls-1{fill:#78909c;fill-rule:evenodd;}</style></defs><title>1Artboard 4 copy 18500px</title><path class="cls-1" d="M184.75,163,250.7,97a6.13,6.13,0,0,0,0-8.67L237.63,75.29a6.13,6.13,0,0,0-8.67,0l-66,66-66-66a6.33,6.33,0,0,0-8.67,0L75.3,88.38a6.13,6.13,0,0,0,0,8.67l66,66L75.3,229a6.13,6.13,0,0,0,0,8.67l13.07,13.08a6.13,6.13,0,0,0,8.67,0l66-66,66,66a6.13,6.13,0,0,0,8.67,0l13.07-13.08a6.13,6.13,0,0,0,0-8.67Z"/></svg>