<svg id="Layer_1" data-name="Layer 1" xmlns="http://www.w3.org/2000/svg" viewBox="0 0 326 326"><defs><style>.cls-1{fill:#39a4dd;}</style></defs><title>1Artboard 4500px</title><path class="cls-1" d="M163,57.42A105.58,105.58,0,1,0,268.58,163,105.58,105.58,0,0,0,163,57.42ZM173.28,221.7H146.15v-27h27.13Zm30.67-84.25a33.26,33.26,0,0,1-2.6,13.82,29.61,29.61,0,0,1-7,9.78,34.64,34.64,0,0,1-10.46,6.49,69.79,69.79,0,0,1-12.94,3.79l-1.85,10.28H151.88L148,154.3l.84-.84q16-.68,22.74-4.66T178.33,138v-.34a10.61,10.61,0,0,0-4-8.9q-4.05-3.14-11.46-3.13a31,31,0,0,0-13.23,2.86,42.94,42.94,0,0,0-12,8.76l-15.5-17a60.12,60.12,0,0,1,17.44-13q10-5,23.84-5a56.71,56.71,0,0,1,16.56,2.27,36.51,36.51,0,0,1,12.83,6.74,30.34,30.34,0,0,1,8.29,11,35.89,35.89,0,0,1,2.93,14.91Z"/></svg>