<svg id="Layer_1" data-name="Layer 1" xmlns="http://www.w3.org/2000/svg" viewBox="0 0 326 326"><defs><style>.cls-1{fill:#fff;}</style></defs><title>1Artboard 4 copy 6500px</title><path class="cls-1" d="M162.89,207.84A44.86,44.86,0,1,1,207.75,163,44.87,44.87,0,0,1,162.89,207.84ZM240.58,163a31.89,31.89,0,0,1,23.89-30.81,106,106,0,0,0-20.3-37.4,31.93,31.93,0,0,1-52.93-34,103.57,103.57,0,0,0-55.81-.23A31.87,31.87,0,0,1,82.16,94.19a105.83,105.83,0,0,0-20.63,37.24,31.79,31.79,0,0,1,0,63.13,106.19,106.19,0,0,0,20.4,37,31.85,31.85,0,0,1,53.26,33.8,103.69,103.69,0,0,0,56.28-.22A31.87,31.87,0,0,1,244.36,231a105.86,105.86,0,0,0,20.08-37.16A31.91,31.91,0,0,1,240.59,163Z"/></svg>