<svg id="Layer_1" data-name="Layer 1" xmlns="http://www.w3.org/2000/svg" viewBox="0 0 326 326"><defs><style>.cls-1{fill:#79a2b2;}</style></defs><title>1Artboard 4 copy 23500px</title><path class="cls-1" d="M145.47,130.78a17.53,17.53,0,1,1,35.05,0v16.31H145.47Zm51.11,16.31V130.78a33.59,33.59,0,1,0-67.17,0v16.31H114.32V214h97.36V147.09Z"/><path class="cls-1" d="M163,300.51C87.18,300.51,25.49,238.83,25.49,163S87.18,25.49,163,25.49,300.51,87.17,300.51,163,238.82,300.51,163,300.51Zm0-254.09A116.58,116.58,0,1,0,279.58,163,116.71,116.71,0,0,0,163,46.42Z"/></svg>