<svg id="Layer_1" data-name="Layer 1" xmlns="http://www.w3.org/2000/svg" viewBox="0 0 326 326"><defs><style>.cls-1{fill:#fff;}</style></defs><title>1Artboard 4 copy 8500px</title><path class="cls-1" d="M251.61,85.78H74.39a5.83,5.83,0,0,0-5.83,5.83V202.73a5.83,5.83,0,0,0,5.83,5.83h73.5c-.49,7.42-2.68,20.3-12,21.22a4.55,4.55,0,0,0-.56.07h-1.11a5.18,5.18,0,1,0,0,10.37h57.51a5.18,5.18,0,1,0,0-10.37h-1.11l-.56-.07c-9.3-.92-11.49-13.8-12-21.22h73.5a5.83,5.83,0,0,0,5.83-5.83V91.61A5.83,5.83,0,0,0,251.61,85.78Z"/></svg>