<svg id="Layer_1" data-name="Layer 1" xmlns="http://www.w3.org/2000/svg" viewBox="0 0 326 326"><defs><style>.cls-1{fill:#54b848;fill-rule:evenodd;}</style></defs><title>1Artboard 4 copy 11500px</title><path class="cls-1" d="M137.33,177.15l97.3-97.31a7,7,0,0,1,9.82,0L271.63,107a7,7,0,0,1,0,9.86q-64.69,64.69-129.41,129.42l-.24.24-.28.24-.15.09-.55.37-.15.09-.3.14-.13.09-.6.28-.15,0-.15.07-1.05.24h-1.53a2.25,2.25,0,0,1-.48-.07l-.19,0-.45-.1-.31-.09-.18-.07-.15,0-.15-.07a5.59,5.59,0,0,1-.65-.31l-.15-.07-.31-.18a7.7,7.7,0,0,1-1.22-1c-114.26-114.24,36,35.93-78.33-78.33a7,7,0,0,1,0-9.83l27.18-27.18a7,7,0,0,1,9.86,0l45.93,46.33Z"/></svg>