<?xml version="1.0" encoding="utf-8"?>
<!-- Generator: Adobe Illustrator 21.0.0, SVG Export Plug-In . SVG Version: 6.00 Build 0)  -->
<svg version="1.1" id="Layer_1" xmlns="http://www.w3.org/2000/svg" xmlns:xlink="http://www.w3.org/1999/xlink" x="0px" y="0px"
	 viewBox="0 0 274 73.2" style="enable-background:new 0 0 274 73.2;" xml:space="preserve">
<style type="text/css">
	.st0{fill:#FFFFFF;}
	.st1{fill:#78909C;}
</style>
<g>
	<g>
		<g>
			<path class="st0" d="M19.1,34c-2.2,0-4.2-0.4-6.1-1.2c-1.9-0.8-3.5-1.9-4.8-3.2c-1.4-1.4-2.4-3-3.2-4.9c-0.8-1.9-1.1-3.9-1.1-6
				v-0.1c0-2.1,0.4-4.1,1.1-6c0.8-1.9,1.8-3.5,3.2-4.9c1.4-1.4,3-2.5,4.9-3.3c1.9-0.8,4-1.2,6.3-1.2c1.4,0,2.6,0.1,3.8,0.3
				c1.1,0.2,2.2,0.5,3.1,0.9c0.9,0.4,1.8,0.9,2.6,1.4c0.8,0.6,1.5,1.2,2.2,1.9l-4.2,4.8c-1.2-1-2.3-1.9-3.5-2.5
				c-1.2-0.6-2.5-0.9-4-0.9c-1.2,0-2.4,0.2-3.5,0.7c-1.1,0.5-2,1.1-2.7,2s-1.4,1.8-1.8,2.9c-0.4,1.1-0.6,2.3-0.6,3.6v0.1
				c0,1.3,0.2,2.5,0.6,3.6c0.4,1.1,1,2.1,1.8,3c0.7,0.8,1.7,1.5,2.7,2c1.1,0.5,2.2,0.7,3.5,0.7c1.7,0,3.1-0.3,4.3-0.9
				c1.2-0.6,2.3-1.5,3.5-2.5l4.2,4.2c-0.8,0.8-1.6,1.6-2.4,2.2s-1.7,1.2-2.7,1.7s-2,0.8-3.2,1.1S20.6,34,19.1,34z"/>
			<path class="st0" d="M43.2,3.9h6.5v29.7h-6.5V3.9z"/>
			<path class="st0" d="M70.4,9.9h-9v-6h24.6v6h-9v23.6h-6.5V9.9z"/>
			<path class="st0" d="M105.6,21.8l-11.4-18h7.6l7.1,11.9l7.2-11.9h7.4l-11.4,17.8v11.8h-6.5V21.8z"/>
			<path class="st0" d="M144.6,34c-2.3,0-4.5-0.4-6.7-1.2c-2.2-0.8-4.2-2-5.9-3.6l3.9-4.6c1.4,1.1,2.7,2,4.2,2.6c1.4,0.7,3,1,4.7,1
				c1.4,0,2.4-0.2,3.2-0.7c0.7-0.5,1.1-1.2,1.1-2.1v-0.1c0-0.4-0.1-0.8-0.2-1.1c-0.2-0.3-0.5-0.6-0.9-0.9c-0.4-0.3-1-0.6-1.8-0.8
				c-0.8-0.3-1.8-0.6-3-0.9c-1.5-0.4-2.9-0.8-4.1-1.2c-1.2-0.5-2.3-1-3.1-1.7c-0.9-0.7-1.5-1.5-2-2.5c-0.5-1-0.7-2.2-0.7-3.7v-0.1
				c0-1.4,0.3-2.6,0.8-3.7c0.5-1.1,1.2-2,2.1-2.8c0.9-0.8,2-1.4,3.3-1.8c1.3-0.4,2.7-0.6,4.2-0.6c2.2,0,4.2,0.3,6,1
				c1.8,0.7,3.5,1.6,5,2.8l-3.4,4.9c-1.3-0.9-2.6-1.6-3.9-2.1c-1.3-0.5-2.5-0.8-3.8-0.8s-2.2,0.2-2.9,0.7c-0.6,0.5-1,1.1-1,1.8v0.1
				c0,0.5,0.1,0.9,0.3,1.2c0.2,0.4,0.5,0.7,1,1c0.5,0.3,1.1,0.6,2,0.8s1.9,0.6,3.2,0.9c1.5,0.4,2.8,0.8,4,1.3c1.2,0.5,2.2,1.1,3,1.8
				c0.8,0.7,1.4,1.5,1.8,2.4c0.4,0.9,0.6,2,0.6,3.3v0.1c0,1.5-0.3,2.8-0.8,3.9c-0.5,1.1-1.3,2.1-2.2,2.9c-1,0.8-2.1,1.4-3.4,1.8
				C147.7,33.7,146.2,34,144.6,34z"/>
			<path class="st0" d="M175.8,21.8l-11.4-18h7.6l7.1,11.9l7.2-11.9h7.4l-11.4,17.8v11.8h-6.5V21.8z"/>
			<path class="st0" d="M204.2,3.9h6l13.9,18.3V3.9h6.4v29.7H225l-14.4-18.9v18.9h-6.4V3.9z"/>
			<path class="st0" d="M257.9,34c-2.2,0-4.2-0.4-6.1-1.2c-1.9-0.8-3.5-1.9-4.8-3.2c-1.4-1.4-2.4-3-3.2-4.9c-0.8-1.9-1.1-3.9-1.1-6
				v-0.1c0-2.1,0.4-4.1,1.1-6c0.8-1.9,1.8-3.5,3.2-4.9c1.4-1.4,3-2.5,4.9-3.3c1.9-0.8,4-1.2,6.3-1.2c1.4,0,2.6,0.1,3.8,0.3
				c1.1,0.2,2.2,0.5,3.1,0.9c0.9,0.4,1.8,0.9,2.6,1.4c0.8,0.6,1.5,1.2,2.2,1.9l-4.2,4.8c-1.2-1-2.3-1.9-3.5-2.5
				c-1.2-0.6-2.5-0.9-4-0.9c-1.2,0-2.4,0.2-3.5,0.7c-1.1,0.5-2,1.1-2.7,2s-1.4,1.8-1.8,2.9c-0.4,1.1-0.6,2.3-0.6,3.6v0.1
				c0,1.3,0.2,2.5,0.6,3.6c0.4,1.1,1,2.1,1.8,3c0.7,0.8,1.7,1.5,2.7,2c1.1,0.5,2.2,0.7,3.5,0.7c1.7,0,3.1-0.3,4.3-0.9
				c1.2-0.6,2.3-1.5,3.5-2.5l4.2,4.2c-0.8,0.8-1.6,1.6-2.4,2.2s-1.7,1.2-2.7,1.7s-2,0.8-3.2,1.1S259.3,34,257.9,34z"/>
		</g>
	</g>
	<g>
		<path class="st1" d="M26.1,66.7c0,0.5-0.1,0.9-0.3,1.3c-0.2,0.4-0.5,0.7-0.8,0.9s-0.7,0.4-1.2,0.6c-0.5,0.1-0.9,0.2-1.4,0.2h-5.6
			V58.1h6.2c0.4,0,0.8,0.1,1.1,0.3c0.3,0.2,0.6,0.4,0.8,0.7c0.2,0.3,0.4,0.6,0.5,0.9c0.1,0.4,0.2,0.7,0.2,1.1c0,0.6-0.1,1.1-0.4,1.6
			c-0.3,0.5-0.7,0.9-1.2,1.1c0.7,0.2,1.2,0.5,1.6,1.1C25.9,65.3,26.1,65.9,26.1,66.7z M19,60v2.9h3c0.4,0,0.7-0.1,1-0.4
			c0.3-0.3,0.4-0.6,0.4-1.1c0-0.4-0.1-0.8-0.4-1.1c-0.2-0.3-0.5-0.4-0.9-0.4H19z M23.8,66.3c0-0.2,0-0.4-0.1-0.6s-0.2-0.4-0.3-0.5
			c-0.1-0.1-0.3-0.3-0.4-0.3c-0.2-0.1-0.3-0.1-0.5-0.1H19v3h3.3c0.2,0,0.4,0,0.6-0.1c0.2-0.1,0.3-0.2,0.5-0.3
			c0.1-0.1,0.2-0.3,0.3-0.5S23.8,66.5,23.8,66.3z"/>
		<path class="st1" d="M31.1,58.1l2.8,5.6l2.9-5.6h2.4l-4.2,7.5v4h-2.2v-4.1l-4.2-7.5H31.1z"/>
		<path class="st1" d="M48.8,69.7V58.1h5.1c0.5,0,1,0.1,1.5,0.3c0.5,0.2,0.8,0.5,1.2,0.9c0.3,0.4,0.6,0.8,0.8,1.2
			c0.2,0.5,0.3,0.9,0.3,1.4c0,0.7-0.2,1.4-0.6,2c-0.4,0.6-0.9,1.1-1.5,1.3l2.6,4.3h-2.5l-2.4-3.9H51v3.9H48.8z M51,63.8h2.8
			c0.2,0,0.4,0,0.6-0.1c0.2-0.1,0.3-0.2,0.5-0.4c0.1-0.2,0.2-0.4,0.3-0.6c0.1-0.2,0.1-0.5,0.1-0.7c0-0.3,0-0.5-0.1-0.7
			s-0.2-0.4-0.4-0.6c-0.1-0.2-0.3-0.3-0.5-0.4c-0.2-0.1-0.4-0.1-0.6-0.1H51V63.8z"/>
		<path class="st1" d="M70.1,67.7v2h-8V58.1h7.9v2h-5.6v2.8h4.9v1.8h-4.9v3H70.1z"/>
		<path class="st1" d="M80.9,61.1c-0.1-0.1-0.2-0.2-0.4-0.3c-0.2-0.1-0.4-0.3-0.7-0.4c-0.3-0.1-0.6-0.2-0.9-0.3
			c-0.3-0.1-0.7-0.1-1-0.1c-0.6,0-1.1,0.1-1.4,0.3c-0.3,0.2-0.5,0.5-0.5,1c0,0.2,0.1,0.4,0.2,0.6c0.1,0.2,0.3,0.3,0.5,0.4
			c0.2,0.1,0.5,0.2,0.8,0.3c0.3,0.1,0.7,0.2,1.1,0.3c0.6,0.2,1.1,0.3,1.5,0.5c0.5,0.2,0.9,0.4,1.2,0.7c0.3,0.3,0.6,0.6,0.7,0.9
			c0.2,0.4,0.3,0.8,0.3,1.3c0,0.6-0.1,1.1-0.4,1.6c-0.2,0.4-0.5,0.8-0.9,1.1c-0.4,0.3-0.9,0.5-1.4,0.6c-0.5,0.1-1.1,0.2-1.6,0.2
			c-0.9,0-1.7-0.1-2.6-0.4c-0.8-0.3-1.6-0.6-2.3-1.1l1-1.9c0.1,0.1,0.3,0.2,0.5,0.4c0.3,0.2,0.6,0.3,0.9,0.5
			c0.3,0.2,0.7,0.3,1.2,0.4c0.4,0.1,0.9,0.2,1.3,0.2c1.2,0,1.9-0.4,1.9-1.2c0-0.2-0.1-0.5-0.2-0.6c-0.1-0.2-0.3-0.3-0.6-0.5
			c-0.3-0.1-0.6-0.2-0.9-0.4c-0.4-0.1-0.8-0.2-1.2-0.4c-0.6-0.2-1-0.3-1.4-0.5s-0.7-0.4-1-0.6c-0.3-0.2-0.5-0.5-0.6-0.8
			s-0.2-0.7-0.2-1.1c0-0.6,0.1-1.1,0.3-1.6c0.2-0.5,0.5-0.8,0.9-1.1c0.4-0.3,0.8-0.5,1.3-0.7c0.5-0.2,1.1-0.2,1.6-0.2
			c0.8,0,1.6,0.1,2.2,0.4s1.3,0.6,1.8,0.9L80.9,61.1z"/>
		<path class="st1" d="M95,60.1h-3.7v9.6h-2.2v-9.6h-3.7v-2H95V60.1z"/>
		<path class="st1" d="M103.3,69.7c-0.8,0-1.6-0.2-2.3-0.5s-1.3-0.8-1.8-1.3c-0.5-0.5-0.9-1.2-1.1-1.9c-0.3-0.7-0.4-1.4-0.4-2.2
			c0-0.8,0.1-1.5,0.4-2.2c0.3-0.7,0.7-1.3,1.2-1.9c0.5-0.5,1.1-1,1.8-1.3s1.4-0.5,2.3-0.5c0.8,0,1.6,0.2,2.3,0.5
			c0.7,0.3,1.3,0.8,1.8,1.3c0.5,0.6,0.9,1.2,1.1,1.9c0.3,0.7,0.4,1.4,0.4,2.1c0,0.8-0.1,1.5-0.4,2.2c-0.3,0.7-0.7,1.3-1.2,1.9
			c-0.5,0.5-1.1,1-1.8,1.3C104.9,69.6,104.1,69.7,103.3,69.7z M99.9,63.9c0,0.5,0.1,1,0.2,1.4c0.2,0.5,0.4,0.9,0.7,1.2
			c0.3,0.4,0.6,0.6,1.1,0.9s0.9,0.3,1.4,0.3c0.5,0,1-0.1,1.4-0.3c0.4-0.2,0.8-0.5,1.1-0.9c0.3-0.4,0.5-0.8,0.7-1.2
			c0.1-0.5,0.2-0.9,0.2-1.4c0-0.5-0.1-1-0.2-1.4c-0.2-0.5-0.4-0.9-0.7-1.2c-0.3-0.4-0.6-0.6-1.1-0.9c-0.4-0.2-0.9-0.3-1.4-0.3
			c-0.5,0-1,0.1-1.4,0.3c-0.4,0.2-0.8,0.5-1.1,0.9c-0.3,0.4-0.5,0.8-0.6,1.2S99.9,63.4,99.9,63.9z"/>
		<path class="st1" d="M113.1,69.7V58.1h5.1c0.5,0,1,0.1,1.5,0.3c0.5,0.2,0.8,0.5,1.2,0.9c0.3,0.4,0.6,0.8,0.8,1.2
			c0.2,0.5,0.3,0.9,0.3,1.4c0,0.7-0.2,1.4-0.6,2c-0.4,0.6-0.9,1.1-1.5,1.3l2.6,4.3h-2.5l-2.4-3.9h-2.2v3.9H113.1z M115.4,63.8h2.8
			c0.2,0,0.4,0,0.6-0.1c0.2-0.1,0.3-0.2,0.5-0.4c0.1-0.2,0.2-0.4,0.3-0.6c0.1-0.2,0.1-0.5,0.1-0.7c0-0.3,0-0.5-0.1-0.7
			s-0.2-0.4-0.4-0.6c-0.1-0.2-0.3-0.3-0.5-0.4c-0.2-0.1-0.4-0.1-0.6-0.1h-2.7V63.8z"/>
		<path class="st1" d="M134.4,67.7v2h-8V58.1h7.9v2h-5.6v2.8h4.9v1.8h-4.9v3H134.4z"/>
		<path class="st1" d="M151.8,61.1c-0.1-0.1-0.2-0.2-0.4-0.3c-0.2-0.1-0.4-0.3-0.7-0.4c-0.3-0.1-0.6-0.2-0.9-0.3
			c-0.3-0.1-0.7-0.1-1-0.1c-0.6,0-1.1,0.1-1.4,0.3c-0.3,0.2-0.5,0.5-0.5,1c0,0.2,0.1,0.4,0.2,0.6c0.1,0.2,0.3,0.3,0.5,0.4
			c0.2,0.1,0.5,0.2,0.8,0.3c0.3,0.1,0.7,0.2,1.1,0.3c0.6,0.2,1.1,0.3,1.5,0.5c0.5,0.2,0.9,0.4,1.2,0.7c0.3,0.3,0.6,0.6,0.7,0.9
			c0.2,0.4,0.3,0.8,0.3,1.3c0,0.6-0.1,1.1-0.4,1.6c-0.2,0.4-0.5,0.8-0.9,1.1c-0.4,0.3-0.9,0.5-1.4,0.6c-0.5,0.1-1.1,0.2-1.6,0.2
			c-0.9,0-1.7-0.1-2.6-0.4c-0.8-0.3-1.6-0.6-2.3-1.1l1-1.9c0.1,0.1,0.3,0.2,0.5,0.4c0.3,0.2,0.6,0.3,0.9,0.5
			c0.3,0.2,0.7,0.3,1.2,0.4c0.4,0.1,0.9,0.2,1.3,0.2c1.2,0,1.9-0.4,1.9-1.2c0-0.2-0.1-0.5-0.2-0.6c-0.1-0.2-0.3-0.3-0.6-0.5
			c-0.3-0.1-0.6-0.2-0.9-0.4c-0.4-0.1-0.8-0.2-1.2-0.4c-0.6-0.2-1-0.3-1.4-0.5s-0.7-0.4-1-0.6c-0.3-0.2-0.5-0.5-0.6-0.8
			s-0.2-0.7-0.2-1.1c0-0.6,0.1-1.1,0.3-1.6c0.2-0.5,0.5-0.8,0.9-1.1c0.4-0.3,0.8-0.5,1.3-0.7c0.5-0.2,1.1-0.2,1.6-0.2
			c0.8,0,1.6,0.1,2.2,0.4s1.3,0.6,1.8,0.9L151.8,61.1z"/>
		<path class="st1" d="M165.9,60.1h-3.7v9.6H160v-9.6h-3.7v-2h9.6V60.1z"/>
		<path class="st1" d="M169.8,69.7V58.1h5.1c0.5,0,1,0.1,1.5,0.3c0.5,0.2,0.8,0.5,1.2,0.9c0.3,0.4,0.6,0.8,0.8,1.2
			c0.2,0.5,0.3,0.9,0.3,1.4c0,0.7-0.2,1.4-0.6,2c-0.4,0.6-0.9,1.1-1.5,1.3l2.6,4.3h-2.5l-2.4-3.9h-2.2v3.9H169.8z M172.1,63.8h2.8
			c0.2,0,0.4,0,0.6-0.1c0.2-0.1,0.3-0.2,0.5-0.4c0.1-0.2,0.2-0.4,0.3-0.6c0.1-0.2,0.1-0.5,0.1-0.7c0-0.3,0-0.5-0.1-0.7
			s-0.2-0.4-0.4-0.6c-0.1-0.2-0.3-0.3-0.5-0.4c-0.2-0.1-0.4-0.1-0.6-0.1h-2.7V63.8z"/>
		<path class="st1" d="M186.2,58.1h2l4.4,11.6h-2.3l-1.1-2.9h-4l-1.1,2.9h-2.3L186.2,58.1z M188.8,65.2l-1.6-4.5l-1.7,4.5H188.8z"/>
		<path class="st1" d="M203.8,60.1h-3.7v9.6h-2.2v-9.6h-3.7v-2h9.6V60.1z"/>
		<path class="st1" d="M215.7,67.7v2h-8V58.1h7.9v2h-5.6v2.8h4.9v1.8h-4.9v3H215.7z"/>
		<path class="st1" d="M227.7,68.4c-0.9,0.9-2,1.4-3.2,1.4c-0.8,0-1.5-0.2-2.1-0.5c-0.7-0.3-1.2-0.7-1.7-1.3
			c-0.5-0.5-0.9-1.2-1.2-1.9c-0.3-0.7-0.4-1.5-0.4-2.3c0-0.8,0.1-1.5,0.4-2.2c0.3-0.7,0.7-1.3,1.2-1.8c0.5-0.5,1.1-0.9,1.8-1.3
			c0.7-0.3,1.4-0.5,2.2-0.5c1.1,0,2,0.2,2.8,0.7c0.8,0.5,1.4,1.1,1.8,1.8l-1.7,1.2c-0.3-0.6-0.7-1-1.2-1.3c-0.5-0.3-1.1-0.5-1.7-0.5
			c-0.5,0-0.9,0.1-1.3,0.3s-0.8,0.5-1,0.8c-0.3,0.4-0.5,0.8-0.7,1.2c-0.2,0.5-0.2,1-0.2,1.5c0,0.5,0.1,1.1,0.3,1.5
			c0.2,0.5,0.4,0.9,0.7,1.2c0.3,0.3,0.7,0.6,1.1,0.8s0.9,0.3,1.4,0.3c1.1,0,2.1-0.5,3-1.6v-0.8h-2.3v-1.6h4.2v5.9h-1.9V68.4z"/>
		<path class="st1" d="M233.9,69.7V58.1h2.2v11.6H233.9z"/>
		<path class="st1" d="M249,67.7v2h-8V58.1h7.9v2h-5.6v2.8h4.9v1.8h-4.9v3H249z"/>
		<path class="st1" d="M259.9,61.1c-0.1-0.1-0.2-0.2-0.4-0.3c-0.2-0.1-0.4-0.3-0.7-0.4c-0.3-0.1-0.6-0.2-0.9-0.3
			c-0.3-0.1-0.7-0.1-1-0.1c-0.6,0-1.1,0.1-1.4,0.3c-0.3,0.2-0.5,0.5-0.5,1c0,0.2,0.1,0.4,0.2,0.6c0.1,0.2,0.3,0.3,0.5,0.4
			c0.2,0.1,0.5,0.2,0.8,0.3c0.3,0.1,0.7,0.2,1.1,0.3c0.6,0.2,1.1,0.3,1.5,0.5c0.5,0.2,0.9,0.4,1.2,0.7c0.3,0.3,0.6,0.6,0.7,0.9
			c0.2,0.4,0.3,0.8,0.3,1.3c0,0.6-0.1,1.1-0.4,1.6c-0.2,0.4-0.5,0.8-0.9,1.1c-0.4,0.3-0.9,0.5-1.4,0.6c-0.5,0.1-1.1,0.2-1.6,0.2
			c-0.9,0-1.7-0.1-2.6-0.4c-0.8-0.3-1.6-0.6-2.3-1.1l1-1.9c0.1,0.1,0.3,0.2,0.5,0.4c0.3,0.2,0.6,0.3,0.9,0.5
			c0.3,0.2,0.7,0.3,1.2,0.4c0.4,0.1,0.9,0.2,1.3,0.2c1.2,0,1.9-0.4,1.9-1.2c0-0.2-0.1-0.5-0.2-0.6c-0.1-0.2-0.3-0.3-0.6-0.5
			c-0.3-0.1-0.6-0.2-0.9-0.4c-0.4-0.1-0.8-0.2-1.2-0.4c-0.6-0.2-1-0.3-1.4-0.5s-0.7-0.4-1-0.6c-0.3-0.2-0.5-0.5-0.6-0.8
			s-0.2-0.7-0.2-1.1c0-0.6,0.1-1.1,0.3-1.6c0.2-0.5,0.5-0.8,0.9-1.1c0.4-0.3,0.8-0.5,1.3-0.7c0.5-0.2,1.1-0.2,1.6-0.2
			c0.8,0,1.6,0.1,2.2,0.4s1.3,0.6,1.8,0.9L259.9,61.1z"/>
	</g>
</g>
</svg>
