<?xml version="1.0" encoding="utf-8"?>
<!-- Generator: Adobe Illustrator 21.0.0, SVG Export Plug-In . SVG Version: 6.00 Build 0)  -->
<svg version="1.1" id="Layer_1" xmlns="http://www.w3.org/2000/svg" xmlns:xlink="http://www.w3.org/1999/xlink" x="0px" y="0px"
	 viewBox="0 0 600 600" style="enable-background:new 0 0 600 600;" xml:space="preserve">
<style type="text/css">
	.st0{fill:#FFFFFF;}
	.st1{fill-rule:evenodd;clip-rule:evenodd;fill:#FFFFFF;}
</style>
<g>
	<rect x="20.2" y="252.7" class="st0" width="41.6" height="196.5"/>
	<g>
		<rect x="20.3" y="151.6" class="st0" width="41.5" height="81.5"/>
		<polygon class="st1" points="579.8,382.2 414.8,382.2 311.6,307.6 311.6,249.7 579.8,249.7 		"/>
		<rect x="81.9" y="367" class="st1" width="94.9" height="80.8"/>
		<polygon class="st0" points="422.2,35.4 372.3,131.2 457.9,131.2 457.9,35.4 		"/>
		<rect x="480.9" y="151.6" class="st0" width="98.9" height="80.8"/>
		<polygon class="st1" points="459,232.4 318.4,232.4 360.5,151.6 459,151.6 		"/>
		<rect x="196.5" y="367" class="st1" width="94.9" height="80.8"/>
		<polygon class="st1" points="240.4,249.7 290.4,249.7 290.4,288.9 		"/>
		<rect x="195.7" y="468.1" class="st0" width="95.7" height="96.6"/>
		<polygon class="st1" points="299.7,228.4 196.5,228.4 197,151.7 338.6,151.7 		"/>
		<rect x="423.8" y="404.2" class="st0" width="155.9" height="97.2"/>
		<rect x="423.4" y="522.8" class="st0" width="156.4" height="41.9"/>
		<rect x="81.9" y="151.7" class="st1" width="94.9" height="194.6"/>
		<polygon class="st1" points="400,564.7 311.6,564.7 311.6,404.2 311.6,335.2 400,402.8 		"/>
		<polygon class="st1" points="291.5,346.9 196.5,346.9 196.5,249.7 209.8,249.7 291.5,317 		"/>
		<polygon class="st0" points="345.5,131.2 81.9,131.2 81.9,35.4 396.3,35.4 		"/>
		<rect x="480.9" y="35.4" class="st0" width="98.9" height="95.8"/>
		<rect x="20.2" y="35.3" class="st0" width="41.6" height="95.9"/>
	</g>
	<rect x="20.2" y="468.1" class="st0" width="156.6" height="96.6"/>
</g>
</svg>
