<?xml version="1.0" encoding="utf-8"?>
<!-- Generator: Adobe Illustrator 21.0.0, SVG Export Plug-In . SVG Version: 6.00 Build 0)  -->
<svg version="1.1" id="Layer_1" xmlns="http://www.w3.org/2000/svg" xmlns:xlink="http://www.w3.org/1999/xlink" x="0px" y="0px"
	 viewBox="0 0 130.8 98.9" style="enable-background:new 0 0 130.8 98.9;" xml:space="preserve">
<style type="text/css">
	.st0{fill:#FFFFFF;}
	.st1{fill:#78909C;}
	.st2{fill:#79A2B2;}
	.st3{fill-rule:evenodd;clip-rule:evenodd;fill:#79A2B2;}
	.st4{fill-rule:evenodd;clip-rule:evenodd;fill:#FFFFFF;}
	.st5{fill:#BDAD7D;}
	.st6{fill-rule:evenodd;clip-rule:evenodd;fill:#BDAD7D;}
</style>
<g>
	<g>
		<g>
			<path class="st0" d="M7.5,81.4c-1.1,0-2.1-0.2-3-0.6c-0.9-0.4-1.7-0.9-2.4-1.6c-0.7-0.7-1.2-1.5-1.6-2.4C0.2,75.9,0,74.9,0,73.9
				v0c0-1,0.2-2,0.6-2.9c0.4-0.9,0.9-1.7,1.6-2.4c0.7-0.7,1.5-1.2,2.4-1.6s2-0.6,3.1-0.6c0.7,0,1.3,0.1,1.9,0.2
				c0.6,0.1,1.1,0.3,1.5,0.5s0.9,0.4,1.3,0.7c0.4,0.3,0.7,0.6,1.1,0.9l-2,2.4c-0.6-0.5-1.1-0.9-1.7-1.2c-0.6-0.3-1.3-0.4-2-0.4
				c-0.6,0-1.2,0.1-1.7,0.4s-1,0.6-1.3,1C4.2,71,3.9,71.5,3.7,72c-0.2,0.5-0.3,1.1-0.3,1.8v0c0,0.6,0.1,1.2,0.3,1.8
				c0.2,0.6,0.5,1,0.9,1.5c0.4,0.4,0.8,0.7,1.3,1c0.5,0.2,1.1,0.4,1.7,0.4c0.8,0,1.5-0.2,2.1-0.5c0.6-0.3,1.1-0.7,1.7-1.2l2,2.1
				c-0.4,0.4-0.8,0.8-1.2,1.1s-0.8,0.6-1.3,0.8c-0.5,0.2-1,0.4-1.6,0.5C8.8,81.3,8.2,81.4,7.5,81.4z"/>
			<path class="st0" d="M19.3,66.6h3.2v14.6h-3.2V66.6z"/>
			<path class="st0" d="M32.7,69.5h-4.4v-3h12.1v3h-4.4v11.6h-3.2V69.5z"/>
			<path class="st0" d="M50,75.4l-5.6-8.8h3.7l3.5,5.9l3.5-5.9h3.6l-5.6,8.8v5.8H50V75.4z"/>
			<path class="st0" d="M69.1,81.3c-1.1,0-2.2-0.2-3.3-0.6s-2-1-2.9-1.8l1.9-2.3c0.7,0.5,1.3,1,2.1,1.3s1.5,0.5,2.3,0.5
				c0.7,0,1.2-0.1,1.6-0.4c0.4-0.2,0.6-0.6,0.6-1v0c0-0.2,0-0.4-0.1-0.6c-0.1-0.2-0.2-0.3-0.4-0.4c-0.2-0.1-0.5-0.3-0.9-0.4
				s-0.9-0.3-1.5-0.4c-0.7-0.2-1.4-0.4-2-0.6c-0.6-0.2-1.1-0.5-1.5-0.8s-0.7-0.7-1-1.2s-0.3-1.1-0.3-1.8v0c0-0.7,0.1-1.3,0.4-1.8
				c0.2-0.5,0.6-1,1-1.4s1-0.7,1.6-0.9s1.3-0.3,2.1-0.3c1.1,0,2.1,0.2,2.9,0.5c0.9,0.3,1.7,0.8,2.5,1.4l-1.7,2.4
				c-0.7-0.4-1.3-0.8-1.9-1.1c-0.6-0.3-1.2-0.4-1.9-0.4c-0.6,0-1.1,0.1-1.4,0.4s-0.5,0.5-0.5,0.9v0c0,0.2,0,0.4,0.1,0.6
				c0.1,0.2,0.3,0.3,0.5,0.5s0.6,0.3,1,0.4s0.9,0.3,1.6,0.4c0.7,0.2,1.4,0.4,2,0.7c0.6,0.2,1.1,0.5,1.5,0.9c0.4,0.3,0.7,0.7,0.9,1.2
				s0.3,1,0.3,1.6v0c0,0.7-0.1,1.4-0.4,1.9c-0.3,0.6-0.6,1-1.1,1.4c-0.5,0.4-1,0.7-1.7,0.9S69.9,81.3,69.1,81.3z"/>
			<path class="st0" d="M84.5,75.4l-5.6-8.8h3.7l3.5,5.9l3.5-5.9h3.6l-5.6,8.8v5.8h-3.2V75.4z"/>
			<path class="st0" d="M98.4,66.6h3l6.8,9v-9h3.2v14.6h-2.7l-7.1-9.3v9.3h-3.2V66.6z"/>
			<path class="st0" d="M124.8,81.4c-1.1,0-2.1-0.2-3-0.6s-1.7-0.9-2.4-1.6c-0.7-0.7-1.2-1.5-1.6-2.4c-0.4-0.9-0.6-1.9-0.6-2.9v0
				c0-1,0.2-2,0.6-2.9c0.4-0.9,0.9-1.7,1.6-2.4c0.7-0.7,1.5-1.2,2.4-1.6c0.9-0.4,2-0.6,3.1-0.6c0.7,0,1.3,0.1,1.9,0.2
				c0.6,0.1,1.1,0.3,1.5,0.5s0.9,0.4,1.3,0.7c0.4,0.3,0.7,0.6,1.1,0.9l-2,2.4c-0.6-0.5-1.1-0.9-1.7-1.2c-0.6-0.3-1.3-0.4-2-0.4
				c-0.6,0-1.2,0.1-1.7,0.4s-1,0.6-1.3,1c-0.4,0.4-0.7,0.9-0.9,1.4s-0.3,1.1-0.3,1.8v0c0,0.6,0.1,1.2,0.3,1.8c0.2,0.6,0.5,1,0.9,1.5
				c0.4,0.4,0.8,0.7,1.3,1c0.5,0.2,1.1,0.4,1.7,0.4c0.8,0,1.5-0.2,2.1-0.5c0.6-0.3,1.1-0.7,1.7-1.2l2,2.1c-0.4,0.4-0.8,0.8-1.2,1.1
				c-0.4,0.3-0.8,0.6-1.3,0.8c-0.5,0.2-1,0.4-1.6,0.5C126.1,81.3,125.5,81.4,124.8,81.4z"/>
		</g>
	</g>
	<g>
		<path class="st1" d="M9.9,97.4c0,0.2,0,0.5-0.1,0.6c-0.1,0.2-0.2,0.3-0.4,0.5c-0.2,0.1-0.4,0.2-0.6,0.3c-0.2,0.1-0.5,0.1-0.7,0.1
			H5.3v-5.7h3c0.2,0,0.4,0,0.5,0.1c0.2,0.1,0.3,0.2,0.4,0.3c0.1,0.1,0.2,0.3,0.3,0.5c0.1,0.2,0.1,0.3,0.1,0.5c0,0.3-0.1,0.5-0.2,0.8
			c-0.1,0.2-0.3,0.4-0.6,0.5c0.3,0.1,0.6,0.3,0.8,0.5C9.8,96.7,9.9,97,9.9,97.4z M6.4,94.1v1.4h1.5c0.2,0,0.3-0.1,0.5-0.2
			c0.1-0.1,0.2-0.3,0.2-0.5c0-0.2-0.1-0.4-0.2-0.5c-0.1-0.1-0.3-0.2-0.4-0.2H6.4z M8.7,97.2c0-0.1,0-0.2-0.1-0.3
			c0-0.1-0.1-0.2-0.1-0.2c-0.1-0.1-0.1-0.1-0.2-0.2c-0.1,0-0.2-0.1-0.3-0.1H6.4v1.5H8c0.1,0,0.2,0,0.3-0.1s0.2-0.1,0.2-0.2
			c0.1-0.1,0.1-0.1,0.2-0.2C8.7,97.4,8.7,97.3,8.7,97.2z"/>
		<path class="st1" d="M12.3,93.2l1.4,2.7l1.4-2.7h1.2l-2.1,3.7v2h-1.1v-2l-2.1-3.7H12.3z"/>
		<path class="st1" d="M21,98.9v-5.7h2.5c0.3,0,0.5,0.1,0.7,0.2c0.2,0.1,0.4,0.3,0.6,0.4c0.2,0.2,0.3,0.4,0.4,0.6
			c0.1,0.2,0.1,0.5,0.1,0.7c0,0.4-0.1,0.7-0.3,1c-0.2,0.3-0.4,0.5-0.7,0.7l1.3,2.1h-1.2L23.2,97h-1.1v1.9H21z M22.1,96h1.4
			c0.1,0,0.2,0,0.3-0.1c0.1,0,0.2-0.1,0.2-0.2c0.1-0.1,0.1-0.2,0.2-0.3c0-0.1,0.1-0.2,0.1-0.4c0-0.1,0-0.3-0.1-0.4
			c0-0.1-0.1-0.2-0.2-0.3c-0.1-0.1-0.2-0.1-0.2-0.2c-0.1,0-0.2-0.1-0.3-0.1h-1.3V96z"/>
		<path class="st1" d="M31.5,97.9v1h-3.9v-5.7h3.9v1h-2.8v1.4H31v0.9h-2.4v1.5H31.5z"/>
		<path class="st1" d="M36.8,94.7c0,0-0.1-0.1-0.2-0.2c-0.1-0.1-0.2-0.1-0.4-0.2c-0.1-0.1-0.3-0.1-0.5-0.2c-0.2,0-0.3-0.1-0.5-0.1
			c-0.3,0-0.5,0.1-0.7,0.2c-0.1,0.1-0.2,0.3-0.2,0.5c0,0.1,0,0.2,0.1,0.3s0.1,0.1,0.2,0.2c0.1,0.1,0.2,0.1,0.4,0.2s0.4,0.1,0.6,0.2
			c0.3,0.1,0.5,0.2,0.8,0.2c0.2,0.1,0.4,0.2,0.6,0.3s0.3,0.3,0.4,0.5c0.1,0.2,0.1,0.4,0.1,0.7c0,0.3-0.1,0.6-0.2,0.8
			c-0.1,0.2-0.3,0.4-0.5,0.5c-0.2,0.1-0.4,0.2-0.7,0.3s-0.5,0.1-0.8,0.1c-0.4,0-0.8-0.1-1.3-0.2s-0.8-0.3-1.1-0.5l0.5-1
			c0,0,0.1,0.1,0.3,0.2c0.1,0.1,0.3,0.2,0.4,0.2c0.2,0.1,0.4,0.1,0.6,0.2c0.2,0.1,0.4,0.1,0.6,0.1c0.6,0,0.9-0.2,0.9-0.6
			c0-0.1,0-0.2-0.1-0.3s-0.2-0.2-0.3-0.2c-0.1-0.1-0.3-0.1-0.5-0.2c-0.2-0.1-0.4-0.1-0.6-0.2c-0.3-0.1-0.5-0.2-0.7-0.2
			c-0.2-0.1-0.4-0.2-0.5-0.3s-0.2-0.3-0.3-0.4c-0.1-0.2-0.1-0.3-0.1-0.6c0-0.3,0.1-0.5,0.2-0.8c0.1-0.2,0.3-0.4,0.4-0.6
			c0.2-0.1,0.4-0.3,0.7-0.3c0.3-0.1,0.5-0.1,0.8-0.1c0.4,0,0.8,0.1,1.1,0.2s0.6,0.3,0.9,0.4L36.8,94.7z"/>
		<path class="st1" d="M43.7,94.2h-1.8v4.7h-1.1v-4.7H39v-1h4.7V94.2z"/>
		<path class="st1" d="M47.8,98.9c-0.4,0-0.8-0.1-1.1-0.2c-0.3-0.2-0.6-0.4-0.9-0.6c-0.2-0.3-0.4-0.6-0.6-0.9
			C45.1,96.8,45,96.4,45,96c0-0.4,0.1-0.7,0.2-1.1c0.1-0.3,0.3-0.7,0.6-0.9c0.2-0.3,0.5-0.5,0.9-0.6c0.3-0.2,0.7-0.2,1.1-0.2
			c0.4,0,0.8,0.1,1.1,0.3c0.3,0.2,0.6,0.4,0.9,0.7c0.2,0.3,0.4,0.6,0.6,0.9s0.2,0.7,0.2,1.1c0,0.4-0.1,0.7-0.2,1.1s-0.3,0.6-0.6,0.9
			c-0.2,0.3-0.5,0.5-0.9,0.6S48.2,98.9,47.8,98.9z M46.1,96c0,0.2,0,0.5,0.1,0.7s0.2,0.4,0.3,0.6c0.1,0.2,0.3,0.3,0.5,0.4
			c0.2,0.1,0.4,0.2,0.7,0.2c0.3,0,0.5-0.1,0.7-0.2s0.4-0.3,0.5-0.4s0.2-0.4,0.3-0.6c0.1-0.2,0.1-0.5,0.1-0.7c0-0.2,0-0.5-0.1-0.7
			c-0.1-0.2-0.2-0.4-0.3-0.6c-0.1-0.2-0.3-0.3-0.5-0.4c-0.2-0.1-0.4-0.2-0.7-0.2c-0.3,0-0.5,0.1-0.7,0.2s-0.4,0.3-0.5,0.4
			s-0.2,0.4-0.3,0.6C46.2,95.6,46.1,95.8,46.1,96z"/>
		<path class="st1" d="M52.6,98.9v-5.7h2.5c0.3,0,0.5,0.1,0.7,0.2c0.2,0.1,0.4,0.3,0.6,0.4c0.2,0.2,0.3,0.4,0.4,0.6
			c0.1,0.2,0.1,0.5,0.1,0.7c0,0.4-0.1,0.7-0.3,1c-0.2,0.3-0.4,0.5-0.7,0.7l1.3,2.1H56L54.8,97h-1.1v1.9H52.6z M53.7,96h1.4
			c0.1,0,0.2,0,0.3-0.1c0.1,0,0.2-0.1,0.2-0.2c0.1-0.1,0.1-0.2,0.2-0.3c0-0.1,0.1-0.2,0.1-0.4c0-0.1,0-0.3-0.1-0.4
			c0-0.1-0.1-0.2-0.2-0.3c-0.1-0.1-0.2-0.1-0.2-0.2c-0.1,0-0.2-0.1-0.3-0.1h-1.3V96z"/>
		<path class="st1" d="M63.1,97.9v1h-3.9v-5.7H63v1h-2.8v1.4h2.4v0.9h-2.4v1.5H63.1z"/>
		<path class="st1" d="M71.7,94.7c0,0-0.1-0.1-0.2-0.2c-0.1-0.1-0.2-0.1-0.4-0.2c-0.1-0.1-0.3-0.1-0.5-0.2c-0.2,0-0.3-0.1-0.5-0.1
			c-0.3,0-0.5,0.1-0.7,0.2c-0.1,0.1-0.2,0.3-0.2,0.5c0,0.1,0,0.2,0.1,0.3s0.1,0.1,0.2,0.2c0.1,0.1,0.2,0.1,0.4,0.2s0.4,0.1,0.6,0.2
			c0.3,0.1,0.5,0.2,0.8,0.2c0.2,0.1,0.4,0.2,0.6,0.3s0.3,0.3,0.4,0.5c0.1,0.2,0.1,0.4,0.1,0.7c0,0.3-0.1,0.6-0.2,0.8
			c-0.1,0.2-0.3,0.4-0.5,0.5c-0.2,0.1-0.4,0.2-0.7,0.3s-0.5,0.1-0.8,0.1c-0.4,0-0.8-0.1-1.3-0.2s-0.8-0.3-1.1-0.5l0.5-1
			c0,0,0.1,0.1,0.3,0.2c0.1,0.1,0.3,0.2,0.4,0.2c0.2,0.1,0.4,0.1,0.6,0.2c0.2,0.1,0.4,0.1,0.6,0.1c0.6,0,0.9-0.2,0.9-0.6
			c0-0.1,0-0.2-0.1-0.3s-0.2-0.2-0.3-0.2c-0.1-0.1-0.3-0.1-0.5-0.2c-0.2-0.1-0.4-0.1-0.6-0.2c-0.3-0.1-0.5-0.2-0.7-0.2
			c-0.2-0.1-0.4-0.2-0.5-0.3s-0.2-0.3-0.3-0.4c-0.1-0.2-0.1-0.3-0.1-0.6c0-0.3,0.1-0.5,0.2-0.8c0.1-0.2,0.3-0.4,0.4-0.6
			c0.2-0.1,0.4-0.3,0.7-0.3c0.3-0.1,0.5-0.1,0.8-0.1c0.4,0,0.8,0.1,1.1,0.2s0.6,0.3,0.9,0.4L71.7,94.7z"/>
		<path class="st1" d="M78.6,94.2h-1.8v4.7h-1.1v-4.7h-1.8v-1h4.7V94.2z"/>
		<path class="st1" d="M80.5,98.9v-5.7H83c0.3,0,0.5,0.1,0.7,0.2c0.2,0.1,0.4,0.3,0.6,0.4c0.2,0.2,0.3,0.4,0.4,0.6
			c0.1,0.2,0.1,0.5,0.1,0.7c0,0.4-0.1,0.7-0.3,1c-0.2,0.3-0.4,0.5-0.7,0.7l1.3,2.1h-1.2L82.7,97h-1.1v1.9H80.5z M81.6,96H83
			c0.1,0,0.2,0,0.3-0.1c0.1,0,0.2-0.1,0.2-0.2c0.1-0.1,0.1-0.2,0.2-0.3c0-0.1,0.1-0.2,0.1-0.4c0-0.1,0-0.3-0.1-0.4
			c0-0.1-0.1-0.2-0.2-0.3c-0.1-0.1-0.2-0.1-0.2-0.2c-0.1,0-0.2-0.1-0.3-0.1h-1.3V96z"/>
		<path class="st1" d="M88.5,93.2h1l2.2,5.7h-1.1L90,97.5h-2l-0.5,1.4h-1.1L88.5,93.2z M89.8,96.7L89,94.5l-0.8,2.2H89.8z"/>
		<path class="st1" d="M97.2,94.2h-1.8v4.7h-1.1v-4.7h-1.8v-1h4.7V94.2z"/>
		<path class="st1" d="M103,97.9v1h-3.9v-5.7h3.9v1h-2.8v1.4h2.4v0.9h-2.4v1.5H103z"/>
		<path class="st1" d="M108.9,98.2c-0.5,0.5-1,0.7-1.6,0.7c-0.4,0-0.7-0.1-1.1-0.2c-0.3-0.1-0.6-0.4-0.9-0.6
			c-0.2-0.3-0.4-0.6-0.6-0.9c-0.1-0.4-0.2-0.7-0.2-1.1c0-0.4,0.1-0.8,0.2-1.1c0.1-0.3,0.3-0.6,0.6-0.9c0.2-0.3,0.5-0.5,0.9-0.6
			c0.3-0.2,0.7-0.2,1.1-0.2c0.5,0,1,0.1,1.4,0.3c0.4,0.2,0.7,0.5,0.9,0.9l-0.8,0.6c-0.1-0.3-0.3-0.5-0.6-0.6
			c-0.3-0.1-0.5-0.2-0.8-0.2c-0.2,0-0.5,0.1-0.7,0.2c-0.2,0.1-0.4,0.2-0.5,0.4c-0.1,0.2-0.3,0.4-0.3,0.6s-0.1,0.5-0.1,0.7
			c0,0.3,0,0.5,0.1,0.7c0.1,0.2,0.2,0.4,0.4,0.6c0.1,0.2,0.3,0.3,0.5,0.4c0.2,0.1,0.4,0.1,0.7,0.1c0.5,0,1-0.3,1.5-0.8v-0.4h-1.1V96
			h2.1v2.9h-0.9V98.2z"/>
		<path class="st1" d="M112,98.9v-5.7h1.1v5.7H112z"/>
		<path class="st1" d="M119.4,97.9v1h-3.9v-5.7h3.9v1h-2.8v1.4h2.4v0.9h-2.4v1.5H119.4z"/>
		<path class="st1" d="M124.7,94.7c0,0-0.1-0.1-0.2-0.2c-0.1-0.1-0.2-0.1-0.4-0.2c-0.1-0.1-0.3-0.1-0.5-0.2c-0.2,0-0.3-0.1-0.5-0.1
			c-0.3,0-0.5,0.1-0.7,0.2c-0.1,0.1-0.2,0.3-0.2,0.5c0,0.1,0,0.2,0.1,0.3c0.1,0.1,0.1,0.1,0.2,0.2c0.1,0.1,0.2,0.1,0.4,0.2
			c0.2,0,0.4,0.1,0.6,0.2c0.3,0.1,0.5,0.2,0.8,0.2c0.2,0.1,0.4,0.2,0.6,0.3s0.3,0.3,0.4,0.5c0.1,0.2,0.1,0.4,0.1,0.7
			c0,0.3-0.1,0.6-0.2,0.8c-0.1,0.2-0.3,0.4-0.5,0.5c-0.2,0.1-0.4,0.2-0.7,0.3c-0.3,0.1-0.5,0.1-0.8,0.1c-0.4,0-0.8-0.1-1.3-0.2
			s-0.8-0.3-1.1-0.5l0.5-1c0,0,0.1,0.1,0.3,0.2c0.1,0.1,0.3,0.2,0.4,0.2c0.2,0.1,0.4,0.1,0.6,0.2c0.2,0.1,0.4,0.1,0.6,0.1
			c0.6,0,0.9-0.2,0.9-0.6c0-0.1,0-0.2-0.1-0.3s-0.2-0.2-0.3-0.2c-0.1-0.1-0.3-0.1-0.5-0.2c-0.2-0.1-0.4-0.1-0.6-0.2
			c-0.3-0.1-0.5-0.2-0.7-0.2s-0.4-0.2-0.5-0.3c-0.1-0.1-0.2-0.3-0.3-0.4s-0.1-0.3-0.1-0.6c0-0.3,0.1-0.5,0.2-0.8
			c0.1-0.2,0.3-0.4,0.4-0.6c0.2-0.1,0.4-0.3,0.7-0.3s0.5-0.1,0.8-0.1c0.4,0,0.8,0.1,1.1,0.2s0.6,0.3,0.9,0.4L124.7,94.7z"/>
	</g>
	<g>
		<rect x="40.3" y="18.6" class="st2" width="3.6" height="16.8"/>
		<g>
			<g>
				<rect x="40.3" y="9.9" class="st0" width="3.6" height="7"/>
			</g>
			<polygon class="st3" points="88.1,29.7 74,29.7 65.2,23.3 65.2,18.3 88.1,18.3 			"/>
			<g>
				<rect x="45.6" y="28.4" class="st4" width="8.1" height="6.9"/>
			</g>
			<polygon class="st2" points="74.7,0 70.4,8.2 77.7,8.2 77.7,0 			"/>
			<rect x="79.7" y="9.9" class="st5" width="8.5" height="6.9"/>
			<g>
				<polygon class="st4" points="77.8,16.9 65.8,16.9 69.4,9.9 77.8,9.9 				"/>
			</g>
			<rect x="55.4" y="28.4" class="st3" width="8.1" height="6.9"/>
			<g>
				<polygon class="st4" points="59.1,18.3 63.4,18.3 63.4,21.7 				"/>
			</g>
			<g>
				<rect x="55.3" y="37" class="st0" width="8.2" height="8.3"/>
			</g>
			<polygon class="st6" points="64.2,16.5 55.4,16.5 55.4,10 67.5,10 			"/>
			<g>
				<rect x="74.8" y="31.5" class="st0" width="13.3" height="8.3"/>
			</g>
			<rect x="74.8" y="41.7" class="st5" width="13.4" height="3.6"/>
			<rect x="45.6" y="10" class="st3" width="8.1" height="16.6"/>
			<g>
				<polygon class="st4" points="72.8,45.3 65.2,45.3 65.2,31.5 65.2,25.6 72.8,31.4 				"/>
			</g>
			<polygon class="st6" points="63.5,26.6 55.4,26.6 55.4,18.3 56.5,18.3 63.5,24.1 			"/>
			<g>
				<polygon class="st0" points="68.1,8.2 45.6,8.2 45.6,0 72.4,0 				"/>
			</g>
			<g>
				<rect x="79.7" y="0" class="st0" width="8.5" height="8.2"/>
			</g>
			<rect x="40.3" y="0" class="st5" width="3.6" height="8.2"/>
		</g>
		<rect x="40.3" y="37" class="st5" width="13.4" height="8.3"/>
	</g>
</g>
</svg>
